# xmcd
#
# Track frame offsets: 
#        150
#        18528
#        35252
#        59109
#        76244
#        96996
#        113654
#        135472
#        157191
#        179439
#        197309
#
# Disc length: 2956 seconds
#
# Revision: 0
# Processed by: cddbd v1.5.2PL0 Copyright (c) Steve Scherf et al.
# Submitted via: ExactAudioCopyFreeDBPlugin 1.0
#
DISCID=8e0b8a0b
DTITLE=Various Artist - Luxury Soul 2012 [CD2)
DYEAR=2012
DGENRE=Soul
TTITLE0=Adriana Evans - Let You Get Away
TTITLE1=Anthony David - 4 Evermore (No Rap Version)
TTITLE2=Pretty Terry - Shake It Off
TTITLE3=Angela Johnson - Anything
TTITLE4=Rahsaan Patterson - Straighten It Out
TTITLE5=Ledisi - I Can't Let You Go
TTITLE6=Howard Hewett - Crystal Clear
TTITLE7=Donna Gardier - You Don't Know
TTITLE8=Johnny Britt - In The Meantime
TTITLE9=Sheree Brown - Just A Simple Love
TTITLE10=Victor Haynes - Music And Love
EXTD=
EXTT0=
EXTT1=
EXTT2=
EXTT3=
EXTT4=
EXTT5=
EXTT6=
EXTT7=
EXTT8=
EXTT9=
EXTT10=
PLAYORDER=
